# xmcd
# 
# Track frame offsets:
#     150
#     20070
#     39168
#     70478
#     88229
#     105493
#     124736
#     144616
#     164824
#     183038
#     197948
# 
# Disc length: 2850
# 
# Revision: 4
# Processed by: cddbd v1.5.2PL0 Copyright (c) Steve Scherf et al.
# Submitted via: fre:ac v1.0.31
# 
DISCID=9e0b200b
DTITLE=John Mayall - Talk About That
DYEAR=2017
DGENRE=Blues
TTITLE0=Talk About That
TTITLE1=It's Hard Going Up
TTITLE2=Feat.Joe Walsh_The Devil Must Be Laughing
TTITLE3=Gimme Some Of That Gumbo
TTITLE4=Goin' Away Baby
TTITLE5=Feat.Joe Walsh_Cards On The Table
TTITLE6=I Didn't Mean To Hurt You
TTITLE7=Don't Deny Me
TTITLE8=Blue Midnight
TTITLE9=Across The County Line
TTITLE10=You Never Know
EXTD=YEAR: 2017
EXTT0=
EXTT1=
EXTT2=
EXTT3=
EXTT4=
EXTT5=
EXTT6=
EXTT7=
EXTT8=
EXTT9=
EXTT10=
PLAYORDER=
